<svg width="33" height="33" viewBox="0 0 33 33" fill="none" xmlns="http://www.w3.org/2000/svg">
<path d="M6.75799 10.7457C12.1382 5.58477 20.8613 5.58477 26.2415 10.7457L26.8891 11.3668C27.1581 11.6249 27.1581 12.0432 26.8891 12.3013L24.674 14.426C24.5395 14.5551 24.3214 14.5551 24.1869 14.426L23.2959 13.5713C19.5425 9.9709 13.457 9.9709 9.70366 13.5713L8.7494 14.4866C8.6149 14.6157 8.39682 14.6157 8.26231 14.4866L6.04728 12.3619C5.77827 12.1039 5.77827 11.6855 6.04728 11.4274L6.75799 10.7457ZM30.8224 15.1399L32.7938 17.0309C33.0628 17.289 33.0628 17.7073 32.7938 17.9654L23.9047 26.4923C23.6357 26.7503 23.1996 26.7503 22.9305 26.4923C22.9305 26.4923 22.9305 26.4923 22.9305 26.4923L16.6216 20.4405C16.5543 20.376 16.4453 20.376 16.378 20.4405C16.378 20.4405 16.378 20.4405 16.378 20.4405L10.0692 26.4923C9.8002 26.7503 9.36405 26.7503 9.09504 26.4923C9.09503 26.4923 9.09503 26.4923 9.09503 26.4923L0.205665 17.9653C-0.0633467 17.7072 -0.0633467 17.2889 0.205665 17.0308L2.17706 15.1398C2.44607 14.8817 2.88222 14.8817 3.15123 15.1398L9.46028 21.1917C9.52753 21.2562 9.63657 21.2562 9.70382 21.1917C9.70383 21.1917 9.70383 21.1917 9.70383 21.1917L16.0126 15.1398C16.2816 14.8817 16.7177 14.8817 16.9867 15.1398C16.9867 15.1398 16.9867 15.1398 16.9867 15.1398L23.2958 21.1917C23.363 21.2562 23.4721 21.2562 23.5393 21.1917L29.8483 15.1399C30.1173 14.8818 30.5534 14.8818 30.8224 15.1399Z" fill="white"/>
</svg>
