<svg width="27" height="27" viewBox="0 0 27 27" fill="none" xmlns="http://www.w3.org/2000/svg">
  <path
    fill-rule="evenodd"
    clip-rule="evenodd"
    d="M24.0714 3.06736C24.437 3.06669 24.7881 3.21031 25.0484 3.46702C25.3038 3.7327 25.4469 4.08659 25.4481 4.4551C25.3814 8.3852 25.226 11.3827 24.9485 13.7697C24.7804 15.6744 24.3353 17.5444 23.6273 19.3206C23.2426 20.2056 22.7178 21.0229 22.0731 21.7409C21.2468 22.5872 20.3049 23.3123 19.2754 23.8947L17.8987 24.6829C16.8773 25.2713 15.756 25.9041 14.4793 26.759C14.2549 26.9112 13.99 26.9926 13.7188 26.9926C13.4476 26.9926 13.1827 26.9112 12.9583 26.759C11.6594 25.893 10.5159 25.2491 9.48341 24.6607L8.81729 24.2832C7.63336 23.6609 6.54221 22.8762 5.57552 21.9518C4.90436 21.2786 4.35583 20.4933 3.95463 19.6315C3.29737 18.1649 2.86329 16.6082 2.6668 15.0131C2.20858 11.5089 1.98604 7.97796 2.00068 4.444C1.99681 4.26178 2.02917 4.08061 2.09587 3.911C2.16258 3.74138 2.2623 3.5867 2.38925 3.45592C2.64955 3.19921 3.00063 3.05559 3.36622 3.05625H3.93242C7.13575 3.15259 10.28 2.18002 12.8695 0.291864C13.1101 0.102786 13.4073 0 13.7133 0C14.0193 0 14.3164 0.102786 14.557 0.291864C17.1495 2.18238 20.2981 3.15508 23.5052 3.05625L24.0714 3.06736ZM21.0073 18.4658C21.5504 17.242 21.906 15.9432 22.0619 14.6134C22.4492 11.6684 22.6531 8.70214 22.6726 5.73183C19.489 5.69083 16.3823 4.74767 13.7133 3.01184C11.0464 4.74345 7.94449 5.68633 4.76507 5.73183C4.84279 8.9403 4.98711 11.4271 5.20915 13.3922C5.34956 15.0355 5.72338 16.6504 6.31935 18.1882C6.59179 18.8026 6.96726 19.3658 7.42954 19.8535C8.08269 20.513 8.83117 21.0706 9.64994 21.5077L10.9489 22.2516C11.7815 22.729 12.7363 23.2729 13.8021 23.9502C14.8568 23.284 15.8004 22.7401 16.622 22.2738L17.3436 21.863C18.3044 21.3577 19.1962 20.7308 19.997 19.9979C20.4137 19.5447 20.7548 19.0274 21.0073 18.4658Z"
    fill="#0B65C6"/>
</svg>