<?xml version="1.0" encoding="utf-8"?>
<!-- Generator: Adobe Illustrator 25.3.1, SVG Export Plug-In . SVG Version: 6.00 Build 0)  -->
<svg version="1.1" id="Layer_1" xmlns="http://www.w3.org/2000/svg" xmlns:xlink="http://www.w3.org/1999/xlink" x="0px" y="0px"
	 viewBox="0 0 288 73" style="enable-background:new 0 0 288 73;" xml:space="preserve">
<style type="text/css">
	.st0{fill:#FFFFFF;}
	.st1{fill:none;stroke:url(#SVGID_1_);stroke-width:2;stroke-linecap:round;stroke-linejoin:round;}
	.st2{fill:none;stroke:url(#SVGID_2_);stroke-width:2;stroke-linecap:round;stroke-linejoin:round;}
	.st3{fill:none;stroke:url(#SVGID_3_);stroke-width:2;stroke-linecap:round;stroke-linejoin:round;}
	.st4{fill:none;stroke:url(#SVGID_4_);stroke-width:2;stroke-linecap:round;stroke-linejoin:round;}
	.st5{fill:#62688F;}
	.st6{fill:#C2C6D5;}
	.st7{fill:#9EA6CE;}
	.st8{fill:#939CC3;}
	.st9{fill:#6F77B6;}
	.st10{fill:#C5CAD8;}
	.st11{fill:#9AA3CB;}
</style>
<g>
	<g>
		<path class="st0" d="M32.9,33.8c0,3,2.3,5.2,5.5,5.2c1,0,2.1-0.2,3-0.7V36c-0.8,0.6-1.8,0.9-2.9,0.9c-2.1,0-3.4-1.4-3.4-3.2
			c0-1.8,1.3-3.2,3.3-3.2c1,0,2.1,0.4,2.8,0.9v-2.3c-0.8-0.4-1.8-0.6-2.8-0.6C35.2,28.5,32.9,30.8,32.9,33.8z"/>
		<path class="st0" d="M43.8,37.3c0.7,1,2,1.7,3.7,1.7s2.9-0.6,3.6-1.6c0.6-0.8,0.8-1.9,0.8-3.4v-5.2h-2.1v5.2
			c0,2.2-0.6,3.1-2.2,3.1c-1.8,0-2.2-1-2.2-3.1v-5.2h-2.2V34C43.1,35.4,43.3,36.5,43.8,37.3z"/>
		<path class="st0" d="M53.9,38.8h2.2v-4h1l2.6,4h2.6l-2.9-4.3c1.3-0.4,2.1-1.5,2.1-2.8c0-2.4-2.1-3.1-4.4-3.1h-3.2V38.8z
			 M56.1,33.1v-2.5H57c1.7,0,2.2,0.4,2.2,1.3c0,0.9-0.7,1.3-2,1.3H56.1z"/>
		<path class="st0" d="M63.3,38.8h2.2v-4h1l2.6,4h2.6l-2.9-4.3c1.3-0.4,2.1-1.5,2.1-2.8c0-2.4-2.1-3.1-4.4-3.1h-3.2V38.8z
			 M65.6,33.1v-2.5h0.9c1.7,0,2.2,0.4,2.2,1.3c0,0.9-0.7,1.3-2,1.3H65.6z"/>
		<path class="st0" d="M72.8,38.8h6.4v-1.9H75v-2.4h3.5v-1.8H75v-2h4v-1.9h-6.3V38.8z"/>
		<path class="st0" d="M88,38.8h2.1V28.7h-2.1v3.8c0,1,0,2,0,2.9l0,0c-0.6-0.9-1.2-1.7-1.9-2.6l-3-4.1h-2.1v10.1H83V35
			c0-1,0-2,0-2.9l0,0c0.6,0.9,1.2,1.7,1.9,2.6L88,38.8z"/>
		<path class="st0" d="M94.8,38.8H97v-8.2h3.3v-1.9h-8.8v1.9h3.3V38.8z"/>
		<path class="st0" d="M37.4,52.8h2.1V42.7h-2.1v3.8c0,1,0,2,0,2.9l0,0c-0.6-0.9-1.2-1.7-1.9-2.6l-3-4.1h-2.1v10.1h2.1V49
			c0-1,0-2,0-2.9l0,0c0.6,0.9,1.2,1.7,1.9,2.6L37.4,52.8z"/>
		<path class="st0" d="M41.6,52.8H48v-1.9h-4.2v-2.4h3.5v-1.8h-3.5v-2h4v-1.9h-6.3V52.8z"/>
		<path class="st0" d="M52.3,52.8h2.2v-8.2h3.3v-1.9H49v1.9h3.3V52.8z"/>
		<path class="st0" d="M61.5,52.8h2.3l1.1-3.5c0.3-0.9,0.5-1.7,0.7-2.5h0c0.2,0.8,0.4,1.6,0.7,2.4l1.1,3.6h2.4l3.1-10.1h-2.2
			L69.4,47c-0.3,0.9-0.5,1.8-0.8,2.7h0c-0.2-0.9-0.5-1.8-0.8-2.6l-1.3-4.3h-1.6L63.5,47c-0.3,0.9-0.5,1.8-0.8,2.6h0
			c-0.2-0.9-0.5-1.8-0.7-2.6l-1.3-4.4h-2.3L61.5,52.8z"/>
		<path class="st0" d="M78.6,50.9c-1.8,0-3.1-1.4-3.1-3.2s1.3-3.2,3.1-3.2s3.1,1.4,3.1,3.2S80.4,50.9,78.6,50.9z M78.6,53
			c3,0,5.3-2.3,5.3-5.2c0-3-2.3-5.2-5.3-5.2s-5.3,2.3-5.3,5.2C73.3,50.7,75.6,53,78.6,53z"/>
		<path class="st0" d="M85.6,52.8h2.2v-4h1l2.6,4H94l-2.9-4.3c1.3-0.4,2.1-1.5,2.1-2.8c0-2.4-2.1-3.1-4.4-3.1h-3.2V52.8z M87.8,47.1
			v-2.5h0.9c1.7,0,2.2,0.4,2.2,1.3c0,0.9-0.7,1.3-2,1.3H87.8z"/>
		<path class="st0" d="M95,52.8h2.2v-5.1l0,0l3.8,5.1h2.7l-4.2-5.4l3.8-4.7h-2.6l-3.5,4.5l0,0v-4.5H95V52.8z"/>
	</g>
	
		<linearGradient id="SVGID_1_" gradientUnits="userSpaceOnUse" x1="144.6762" y1="25.9627" x2="153.0222" y2="15.5378" gradientTransform="matrix(1 0 0 -1 0 74.7211)">
		<stop  offset="0" style="stop-color:#30E06F"/>
		<stop  offset="0.9346" style="stop-color:#118139"/>
	</linearGradient>
	<path class="st1" d="M151.4,48.7v7.5h-7.5"/>
	
		<linearGradient id="SVGID_2_" gradientUnits="userSpaceOnUse" x1="174.6762" y1="40.9627" x2="183.0222" y2="30.5378" gradientTransform="matrix(1 0 0 -1 0 74.7211)">
		<stop  offset="0" style="stop-color:#30E06F"/>
		<stop  offset="0.9346" style="stop-color:#118139"/>
	</linearGradient>
	<path class="st2" d="M173.9,41.2v-7.5h7.5"/>
	
		<linearGradient id="SVGID_3_" gradientUnits="userSpaceOnUse" x1="155.5729" y1="37.8916" x2="186.9409" y2="5.8415" gradientTransform="matrix(1 0 0 -1 0 74.7211)">
		<stop  offset="0" style="stop-color:#30E06F"/>
		<stop  offset="0.9346" style="stop-color:#118139"/>
	</linearGradient>
	<path class="st3" d="M174.4,33.7c5.3,5.6,6,14.1,1.7,20.4c-4.3,6.4-12.6,8.8-19.7,5.8"/>
	
		<linearGradient id="SVGID_4_" gradientUnits="userSpaceOnUse" x1="147.2779" y1="44.5274" x2="178.6309" y2="12.4957" gradientTransform="matrix(1 0 0 -1 0 74.7211)">
		<stop  offset="0" style="stop-color:#30E06F"/>
		<stop  offset="0.9346" style="stop-color:#118139"/>
	</linearGradient>
	<path class="st4" d="M150.9,56.3c-5.3-5.6-6-14.1-1.7-20.4c4.3-6.3,12.5-8.8,19.6-5.8"/>
	<g>
		<polygon class="st5" points="221.2,36.5 239.4,47.3 257.7,36.5 257.7,36.5 257.7,36.5 257.7,36.5 257.7,36.5 239.4,6.2 
			221.2,36.5 221.2,36.5 221.2,36.5 221.2,36.5 		"/>
		<polygon class="st5" points="239.4,50.8 221.2,40 239.4,65.7 257.7,40 		"/>
	</g>
	<path class="st6" d="M239.4,6.2l-18.3,30.3l18.3-8.3V6.2z"/>
	<path class="st7" d="M239.4,28.2l-18.3,8.3l18.3,10.8V28.2z"/>
	<path class="st8" d="M257.7,36.5L239.4,6.2v22L257.7,36.5z"/>
	<path class="st9" d="M239.4,47.3l18.3-10.8l-18.3-8.3V47.3z"/>
	<path class="st10" d="M221.2,40l18.3,25.7v-15L221.2,40z"/>
	<path class="st11" d="M239.4,50.8v15L257.7,40L239.4,50.8z"/>
</g>
</svg>
