<?xml version="1.0" encoding="utf-8"?>
<!-- Generator: Adobe Illustrator 25.3.1, SVG Export Plug-In . SVG Version: 6.00 Build 0)  -->
<svg version="1.1" id="f341247d-634e-4a45-b2be-4d2c78aff5a2"
	 xmlns="http://www.w3.org/2000/svg" xmlns:xlink="http://www.w3.org/1999/xlink" x="0px" y="0px" viewBox="0 0 18 18"
	 style="enable-background:new 0 0 18 18;" xml:space="preserve">
<style type="text/css">
	.st0{fill:#FFFFFF;}
</style>
<g>
	<path class="st0" d="M15.2,3.3c-1.2-0.5-2.4-0.9-3.7-1.1c0,0,0,0-0.1,0c-0.2,0.3-0.3,0.6-0.5,0.9c-1.4-0.2-2.8-0.2-4.1,0
		C6.8,2.8,6.7,2.5,6.5,2.2c0,0,0,0-0.1,0C5.2,2.4,3.9,2.8,2.8,3.3l0,0c-2.1,3-3.1,6.6-2.7,10.3l0,0c1.4,1,2.9,1.8,4.5,2.3
		c0,0,0,0,0.1,0c0.3-0.5,0.7-1,0.9-1.5c0,0,0-0.1,0-0.1c-0.5-0.2-1-0.4-1.4-0.7c0,0,0-0.1,0-0.1c0,0,0,0,0,0l0.3-0.2c0,0,0,0,0.1,0
		c2.9,1.3,6.2,1.3,9.1,0c0,0,0,0,0.1,0l0.3,0.2c0,0,0,0.1,0,0.1c0,0,0,0,0,0c-0.4,0.3-0.9,0.5-1.4,0.7c0,0,0,0.1,0,0.1
		c0.3,0.5,0.6,1,0.9,1.5c0,0,0,0,0.1,0c1.6-0.5,3.1-1.3,4.5-2.3l0,0C18.3,9.9,17.4,6.3,15.2,3.3L15.2,3.3z M6,11.5
		c-0.9-0.1-1.6-0.9-1.6-1.8C4.3,8.8,5.1,8,6,7.9c0.9,0,1.7,0.8,1.6,1.8c0,0,0,0,0,0C7.7,10.7,7,11.5,6,11.5C6,11.5,6,11.5,6,11.5z
		 M12,11.5c-0.9-0.1-1.7-0.9-1.6-1.8C10.3,8.8,11,7.9,12,7.9c0,0,0,0,0,0c0.9,0.1,1.7,0.9,1.6,1.8c0,0,0,0,0,0
		C13.7,10.7,12.9,11.5,12,11.5C12,11.5,12,11.5,12,11.5z"/>
</g>
</svg>
