<svg width="37" height="16" viewBox="0 0 37 16" fill="none" xmlns="http://www.w3.org/2000/svg">
<path d="M7.20088 2.33344C6.78019 2.83125 6.1071 3.22389 5.434 3.1678C5.34986 2.4947 5.6794 1.77954 6.06503 1.33782C6.48571 0.825985 7.22191 0.461391 7.81788 0.433346C7.88799 1.13449 7.61455 1.82161 7.20088 2.33344ZM7.81087 3.30101C6.83628 3.24492 6.00192 3.85492 5.53917 3.85492C5.06941 3.85492 4.36125 3.32906 3.59 3.34308C2.58736 3.35711 1.65485 3.92503 1.14301 4.8295C0.0913006 6.63845 0.869568 9.31681 1.88622 10.7892C2.38403 11.5184 2.98 12.3177 3.76528 12.2896C4.50849 12.2616 4.80297 11.8059 5.70043 11.8059C6.60491 11.8059 6.86433 12.2896 7.64961 12.2756C8.46293 12.2616 8.97476 11.5464 9.47258 10.8173C10.0405 9.98991 10.2719 9.18359 10.2859 9.14152C10.2719 9.1275 8.71534 8.53153 8.70132 6.73661C8.6873 5.23617 9.92832 4.521 9.98441 4.47893C9.28327 3.44124 8.18949 3.32906 7.81087 3.30101ZM13.441 1.2677V12.1985H15.1378V8.46142H17.4866C19.6321 8.46142 21.1396 6.98902 21.1396 4.85755C21.1396 2.72608 19.6602 1.2677 17.5427 1.2677H13.441ZM15.1378 2.69803H17.094C18.5664 2.69803 19.4077 3.48331 19.4077 4.86456C19.4077 6.24581 18.5664 7.0381 17.087 7.0381H15.1378V2.69803ZM24.2386 12.2826C25.3043 12.2826 26.293 11.7428 26.7417 10.8874H26.7767V12.1985H28.3473V6.75764C28.3473 5.18007 27.0853 4.16342 25.1431 4.16342C23.3412 4.16342 22.009 5.1941 21.9599 6.6104H23.4884C23.6146 5.93731 24.2386 5.49559 25.094 5.49559C26.1317 5.49559 26.7136 5.97938 26.7136 6.86982V7.47281L24.5962 7.59901C22.626 7.71821 21.5603 8.52452 21.5603 9.9268C21.5603 11.3431 22.661 12.2826 24.2386 12.2826ZM24.6944 10.9855C23.7899 10.9855 23.215 10.5508 23.215 9.88473C23.215 9.19761 23.7689 8.79796 24.8276 8.73486L26.7136 8.61567V9.23267C26.7136 10.2563 25.8442 10.9855 24.6944 10.9855ZM30.4437 15.1713C32.0984 15.1713 32.8767 14.5403 33.5568 12.6262L36.5366 4.26859H34.8118L32.8136 10.7261H32.7785L30.7803 4.26859H29.0064L31.8811 12.2265L31.7268 12.7103C31.4674 13.5307 31.0467 13.8462 30.2965 13.8462C30.1633 13.8462 29.9038 13.8322 29.7987 13.8181V15.1293C29.8968 15.1573 30.3175 15.1713 30.4437 15.1713Z" fill="white"/>
</svg>
