<svg width="47" height="12" viewBox="0 0 47 12" fill="none" xmlns="http://www.w3.org/2000/svg">
<path d="M30.5953 4.72766C29.8245 4.05046 28.8941 3.71952 27.8184 3.71952C26.7574 3.71952 25.827 4.05104 25.0557 4.72766C24.2849 5.39008 23.8932 6.3122 23.8932 7.49343C23.8932 8.67462 24.2849 9.59622 25.0557 10.2733C25.8264 10.9358 26.7574 11.2673 27.8183 11.2673C28.8941 11.2673 29.8245 10.9358 30.5953 10.2733C31.3808 9.59622 31.7725 8.67462 31.7725 7.49339C31.7725 6.31217 31.3803 5.39012 30.5953 4.72766ZM26.3652 9.0056C25.9587 8.61695 25.754 8.11235 25.754 7.49343C25.754 6.87398 25.9571 6.36991 26.3652 5.99539C26.7717 5.60674 27.2522 5.41945 27.8178 5.41945C28.3839 5.41945 28.8788 5.60674 29.2859 5.99539C29.7066 6.36991 29.9112 6.87398 29.9112 7.49343C29.9112 8.11288 29.7082 8.61695 29.2858 9.0056C28.8793 9.38004 28.3845 9.56734 27.8178 9.56734C27.2522 9.56734 26.7728 9.38008 26.3652 9.0056ZM34.5215 11.0652V1.18108H32.6898V11.0652H34.5215ZM40.4341 3.9208V7.86452C40.4341 8.81491 39.9157 9.44472 38.9287 9.44472C37.9254 9.44472 37.4207 8.81545 37.4207 7.86452V3.9208H35.5856V8.16716C35.5856 9.81216 36.6323 11.2666 38.9287 11.2666H38.9428C41.2253 11.2666 42.2701 9.78005 42.2701 8.16716V3.9208H40.4341ZM21.9433 3.9208L20.1116 8.76048L18.2799 3.9208H16.3319L19.2547 11.0652H20.9707L23.893 3.9208H21.9433ZM16.3413 7.29147C16.3413 6.2545 16.0072 5.40478 15.3528 4.72766C14.6983 4.05046 13.8562 3.71952 12.8238 3.71952C11.7629 3.71952 10.861 4.07987 10.1193 4.78533C9.39188 5.49136 9.02928 6.38405 9.02928 7.49343C9.02928 8.60278 9.39241 9.5102 10.105 10.2157C10.8325 10.9217 11.7047 11.2673 12.7366 11.2673C14.322 11.2673 15.4411 10.576 16.123 9.17869L14.757 8.40082C14.3072 9.27941 13.6522 9.71156 12.7657 9.71156C11.6756 9.71156 10.9049 9.02031 10.7886 7.92562H16.3408V7.29147H16.3413ZM12.7646 5.10214C13.7965 5.10214 14.4805 5.67805 14.6544 6.60018H10.7875C11.0645 5.75046 11.8194 5.10214 12.7646 5.10214ZM9.02932 11.0653L6.57167 6.80203C8.12635 6.24029 8.8971 5.26102 8.8971 3.83483C8.89878 2.09186 7.50206 0.98251 5.27815 0.98251H0.932251V11.0653H2.8512V6.97458H4.47993L6.83443 11.0653H9.02932ZM5.27815 2.65307C6.41207 2.65307 6.97933 3.09943 6.97933 3.97801C6.97933 4.85656 6.41153 5.30292 5.27815 5.30292H2.8512V2.65307H5.27815ZM45.3754 11.2667C44.1964 11.2667 43.2403 10.319 43.2403 9.14917V1.99069H45.0718V3.92358H46.6423V5.39274H45.0718V9.03272C45.0718 9.37566 45.3521 9.65324 45.6988 9.65324H46.6423V11.2667H45.3754Z" fill="white"/>
</svg>
