<svg width="56" height="12" viewBox="0 0 56 12" fill="none" xmlns="http://www.w3.org/2000/svg">
<path d="M14.73 10.951H12.1319L13.757 0.903055H16.3549L14.73 10.951Z" fill="white"/>
<path d="M24.1485 1.14875C23.636 0.945449 22.8232 0.720978 21.8183 0.720978C19.2525 0.720978 17.4458 2.08914 17.4348 4.0452C17.4134 5.48837 18.7283 6.28995 19.7117 6.77117C20.7169 7.26284 21.0586 7.58384 21.0586 8.02213C21.0483 8.69524 20.2464 9.00554 19.4983 9.00554C18.4611 9.00554 17.9053 8.84555 17.0607 8.47105L16.7186 8.31052L16.3549 10.5661C16.9643 10.8437 18.087 11.09 19.2525 11.1008C21.9786 11.1008 23.7534 9.7538 23.7744 7.66935C23.7848 6.52548 23.0905 5.64906 21.5936 4.93287C20.6849 4.47312 20.1285 4.16312 20.1285 3.69271C20.1391 3.26508 20.5991 2.82706 21.6249 2.82706C22.4695 2.80561 23.0901 3.00863 23.5602 3.2118L23.7952 3.31849L24.1485 1.14875Z" fill="white"/>
<path d="M27.6014 7.39138C27.8154 6.81413 28.6387 4.58004 28.6387 4.58004C28.6279 4.6015 28.8522 3.99214 28.9806 3.61807L29.1621 4.48386C29.1621 4.48386 29.6541 6.88902 29.7609 7.39138C29.3549 7.39138 28.1146 7.39138 27.6014 7.39138ZM30.8084 0.903055H28.7988C28.1791 0.903055 27.7083 1.08462 27.4409 1.73674L23.5818 10.9509H26.3079C26.3079 10.9509 26.7567 9.7107 26.8531 9.44363C27.1522 9.44363 29.8041 9.44363 30.1889 9.44363C30.2634 9.79642 30.4989 10.9509 30.4989 10.9509H32.9044L30.8084 0.903055Z" fill="white"/>
<path d="M9.96259 0.903055L7.41822 7.75478L7.14018 6.36519C6.66978 4.76175 5.19449 3.01966 3.54816 2.15344L5.87872 10.9404H8.62613L12.7099 0.903055H9.96259Z" fill="white"/>
<path d="M5.11898 0.358879H0.938912L0.896149 0.561899C4.15687 1.39573 6.31637 3.40563 7.20362 5.82144L6.29492 1.2035C6.14532 0.561762 5.68557 0.380045 5.11898 0.358879Z" fill="white"/>
<path d="M47.2302 10.149L47.3534 10.251C46.5174 10.8077 45.535 11.1035 44.5306 11.1008C43.1783 11.1008 41.8814 10.5636 40.9251 9.6074C39.9689 8.65119 39.4317 7.35427 39.4317 6.00194C39.4317 4.64964 39.9689 3.35272 40.9251 2.3965C41.8814 1.44027 43.1783 0.903071 44.5306 0.903071C45.5349 0.900533 46.5174 1.19631 47.3534 1.75288L47.2302 1.85486C46.6372 2.37036 46.1617 3.00706 45.8358 3.72197C45.5099 4.43689 45.341 5.2134 45.3408 5.99911C45.3403 6.78574 45.5088 7.56332 45.8347 8.27926C46.1607 8.9952 46.6366 9.63284 47.2302 10.149ZM50.8334 0.904489C49.8291 0.902377 48.8468 1.19811 48.0106 1.7543C48.0531 1.78829 48.0942 1.82087 48.1338 1.85628C48.7271 2.37153 49.203 3.00814 49.5292 3.72309C49.8554 4.43804 50.0244 5.21468 50.0246 6.00053C50.025 6.7871 49.8563 7.56457 49.5301 8.28028C49.2039 8.99599 48.7277 9.63329 48.1338 10.149L48.0106 10.251C48.8467 10.8073 49.8291 11.103 50.8334 11.1008C52.1857 11.1008 53.4826 10.5636 54.4388 9.6074C55.3951 8.65119 55.9323 7.35427 55.9323 6.00194C55.9319 4.64989 55.3945 3.35333 54.4383 2.39741C53.4821 1.4415 52.1854 0.904489 50.8334 0.904489ZM47.682 1.9965C47.6168 2.0489 47.5531 2.10131 47.4894 2.15654C46.9382 2.6345 46.4963 3.22536 46.1935 3.88908C45.8908 4.55279 45.7342 5.27385 45.7345 6.00336C45.7341 6.73311 45.8906 7.45438 46.1933 8.11836C46.4961 8.78235 46.9381 9.37342 47.4894 9.85158C47.5531 9.9054 47.6168 9.95923 47.682 10.0102C47.7486 9.95923 47.8123 9.9054 47.876 9.85158C48.4271 9.37336 48.8689 8.78218 49.1714 8.11825C49.474 7.45426 49.6302 6.733 49.6295 6.00336C49.63 5.27394 49.4738 4.55292 49.1713 3.8892C48.8687 3.22547 48.427 2.63457 47.876 2.15654C47.8123 2.10131 47.7486 2.0489 47.682 1.9965Z" fill="white"/>
</svg>
