<svg width="85" height="19" viewBox="0 0 85 19" fill="none" xmlns="http://www.w3.org/2000/svg">
<path d="M20.7577 17.0219H16.9414L19.3284 2.2627H23.1444L20.7577 17.0219Z" fill="white"/>
<path d="M34.5923 2.62347C33.8395 2.32484 32.6456 1.99512 31.1694 1.99512C27.4007 1.99512 24.7468 4.00477 24.7306 6.87798C24.6992 8.99782 26.6306 10.1752 28.0752 10.8821C29.5516 11.6043 30.0535 12.0757 30.0535 12.7195C30.0385 13.7083 28.8605 14.1641 27.7617 14.1641C26.2381 14.1641 25.4217 13.9291 24.1811 13.379L23.6786 13.1432L23.1445 16.4563C24.0396 16.8641 25.6886 17.2259 27.4007 17.2418C31.405 17.2418 34.0119 15.2632 34.0428 12.2014C34.058 10.5212 33.0382 9.23385 30.8394 8.18185C29.5047 7.50654 28.6873 7.05119 28.6873 6.36023C28.7029 5.73208 29.3786 5.08869 30.8854 5.08869C32.126 5.05718 33.0376 5.3554 33.7281 5.65382L34.0733 5.81054L34.5923 2.62347Z" fill="white"/>
<path d="M39.6641 11.7932C39.9784 10.9453 41.1878 7.66372 41.1878 7.66372C41.1719 7.69524 41.5014 6.80018 41.6899 6.25071L41.9566 7.52244C41.9566 7.52244 42.6793 11.0553 42.8362 11.7932C42.2398 11.7932 40.4179 11.7932 39.6641 11.7932ZM44.3748 2.2627H41.423C40.5127 2.2627 39.8211 2.5294 39.4283 3.48727L33.7598 17.0217H37.7641C37.7641 17.0217 38.4233 15.2 38.565 14.8077C39.0043 14.8077 42.8996 14.8077 43.4648 14.8077C43.5743 15.3259 43.9201 17.0217 43.9201 17.0217H47.4536L44.3748 2.2627Z" fill="white"/>
<path d="M13.755 2.2627L10.0176 12.327L9.60924 10.2859C8.91828 7.93064 6.75127 5.37172 4.33301 4.09935L7.75631 17.0062H11.7919L17.7904 2.2627H13.755Z" fill="white"/>
<path d="M6.64031 1.46191H0.500315L0.4375 1.76013C5.22708 2.98491 8.39912 5.93721 9.70237 9.48572L8.36761 2.70256C8.14786 1.75992 7.47255 1.49301 6.64031 1.46191Z" fill="white"/>
<g clip-path="url(#clip0_3262_55912)">
<path d="M69.2025 16.779L69.42 16.959C67.9444 17.9416 66.2103 18.4636 64.4375 18.459C62.0506 18.459 59.7614 17.5108 58.0735 15.823C56.3857 14.1351 55.4375 11.846 55.4375 9.45901C55.4375 7.07206 56.3857 4.78288 58.0735 3.09505C59.7614 1.40723 62.0506 0.459013 64.4375 0.459013C66.2102 0.454533 67.9444 0.976601 69.42 1.95901L69.2025 2.13901C68.1559 3.04893 67.3166 4.17275 66.7413 5.43464C66.166 6.69654 65.868 8.06716 65.8675 9.45402C65.8667 10.8425 66.1641 12.215 66.7394 13.4787C67.3148 14.7424 68.1547 15.8679 69.2025 16.779ZM75.5625 0.461515C73.7899 0.457787 72.056 0.979791 70.58 1.96152C70.655 2.02152 70.7275 2.07902 70.7975 2.14152C71.8448 3.05098 72.6848 4.17466 73.2605 5.43661C73.8363 6.69857 74.1345 8.06941 74.135 9.45651C74.1356 10.8449 73.8379 12.2172 73.2621 13.4805C72.6863 14.7438 71.8458 15.8687 70.7975 16.779L70.58 16.959C72.0559 17.9409 73.7899 18.4629 75.5625 18.459C77.9494 18.459 80.2386 17.5108 81.9265 15.823C83.6143 14.1351 84.5625 11.846 84.5625 9.45901C84.5618 7.0725 83.6133 4.78396 81.9256 3.09667C80.2378 1.40938 77.949 0.461515 75.5625 0.461515ZM70 2.38901C69.885 2.48151 69.7725 2.57401 69.66 2.67151C68.6872 3.51515 67.9071 4.55807 67.3727 5.7296C66.8383 6.90112 66.562 8.17385 66.5625 9.46152C66.5618 10.7496 66.838 12.0227 67.3724 13.1947C67.9068 14.3666 68.687 15.41 69.66 16.254C69.7725 16.349 69.885 16.444 70 16.534C70.1175 16.444 70.23 16.349 70.3425 16.254C71.3152 15.4099 72.095 14.3664 72.629 13.1945C73.163 12.0225 73.4387 10.7494 73.4375 9.46152C73.4385 8.17402 73.1627 6.90135 72.6287 5.72981C72.0947 4.55828 71.315 3.51527 70.3425 2.67151C70.23 2.57401 70.1175 2.48151 70 2.38901Z" fill="white"/>
</g>
<defs>
<clipPath id="clip0_3262_55912">
<rect x="55.4375" y="0.461914" width="29.125" height="18" fill="white"/>
</clipPath>
</defs>
</svg>
